<?xml version="1.0" standalone="no"?>
<!DOCTYPE svg PUBLIC "-//W3C//DTD SVG 20010904//EN" "http://www.w3.org/TR/2001/REC-SVG-20010904/DTD/svg10.dtd">
<!-- Created using Krita: https://krita.org -->
<svg xmlns="http://www.w3.org/2000/svg" 
    xmlns:xlink="http://www.w3.org/1999/xlink"
    xmlns:krita="http://krita.org/namespaces/svg/krita"
    xmlns:sodipodi="http://sodipodi.sourceforge.net/DTD/sodipodi-0.dtd"
    width="48.0835pt"
    height="46.8555pt"
    viewBox="0 0 48.0835 46.8555">
<defs/>
<g id="svgg" transform="matrix(0.12 0 0 0.12 0 0)" fill="none">
  <path id="path0" transform="translate(-0.305570843676996, -0.417737261138237)" fill="#000000" fill-rule="evenodd" stroke-opacity="0" stroke="#000000" stroke-width="0" stroke-linecap="square" stroke-linejoin="bevel" d="M176.973 1.41474C90.4656 11.9497 21.1836 75.6607 4.01757 160.461C-14.2754 250.831 31.1766 341.801 114.373 381.33C136.806 391.989 145.421 393.182 149.666 386.219C150.834 384.304 151.867 343.085 150.748 343.085C150.624 343.085 147.549 343.533 143.915 344.081C120.485 347.612 100.622 342.948 90.6766 331.58C87.9066 328.414 86.7756 326.404 81.7196 315.672C76.6986 305.011 69.4736 295.697 62.6606 291.1C53.8636 285.163 52.0356 281.989 56.1646 279.814C65.9896 274.638 82.9636 284.006 93.9276 300.654C106.2 319.289 124.145 325.248 145.854 317.897C151.772 315.893 151.678 316 153.235 309.418C154.708 303.187 158.15 296.135 161.629 292.222C165.073 288.349 165.263 288.563 157.33 287.372C104.833 279.485 79.1446 253.924 74.3496 204.802C71.7486 178.151 76.7136 158.52 90.5306 140.824L94.1186 136.229L93.1706 133.157C89.0356 119.76 89.3866 104.299 94.1666 89.2677L96.0276 83.4177L99.3146 83.2087C109.206 82.5787 127.238 89.2807 143.874 99.7687L150.442 103.909L158.207 102.191C186.59 95.9087 214.277 95.6727 239.973 101.494C252.075 104.236 250.598 104.376 257.643 99.8197C277.984 86.6647 302.862 79.0697 305.964 85.0677C311.53 95.8317 312.939 118.137 308.899 131.548L307.455 136.346L310.127 139.548C321.8 153.539 326.957 168.011 327.474 188.231C328.961 246.38 302.545 278.375 245.862 287.076C235.887 288.607 236.106 288.461 239.105 291.597C243.619 296.317 246.788 302.682 248.807 311.085C249.653 314.603 249.923 322.02 250.244 350.542L250.639 385.666L252.608 387.719C256.676 391.963 261.062 391.897 272.639 387.417C383.39 344.564 432.606 214.92 378.426 108.751C340.811 35.0417 258.959 -8.57026 176.973 1.41474" sodipodi:nodetypes="ccccccccccccccccccccccccccccccccccccccccc"/>
 </g>
</svg>
