<?xml version="1.0" standalone="no"?>
<!DOCTYPE svg PUBLIC "-//W3C//DTD SVG 20010904//EN" "http://www.w3.org/TR/2001/REC-SVG-20010904/DTD/svg10.dtd">
<!-- Created using Krita: https://krita.org -->
<svg xmlns="http://www.w3.org/2000/svg" 
    xmlns:xlink="http://www.w3.org/1999/xlink"
    xmlns:krita="http://krita.org/namespaces/svg/krita"
    xmlns:sodipodi="http://sodipodi.sourceforge.net/DTD/sodipodi-0.dtd"
    width="108pt"
    height="108pt"
    viewBox="0 0 108 108">
<defs/>
<path id="shape1" transform="matrix(0 1.59950538577593 -1.59967227751654 0 101.126895949915 38.7657879921937)" fill="#ffffff" fill-rule="evenodd" stroke-opacity="0" stroke="#000000" stroke-width="0" stroke-linecap="square" stroke-linejoin="bevel" d="M43.0664 34.9453C43.0664 39.8906 41.332 43.7051 37.8633 46.3887C34.3945 49.0723 29.4375 50.4141 22.9922 50.4141L0 50.4141L0 0L21.4102 0C34.793 0 41.4844 4.06641 41.4844 12.1992C41.4844 13.957 41.0625 15.5684 40.2188 17.0332C39.375 18.498 38.0918 19.7813 36.3691 20.8828C34.6465 21.9844 32.7539 22.7344 30.6914 23.1328L30.6914 23.2734C33.082 23.5547 35.2266 24.2637 37.125 25.4004C39.0234 26.5371 40.4883 27.9551 41.5195 29.6543C42.5508 31.3535 43.0664 33.1172 43.0664 34.9453M25.3477 14.8359C25.3477 11.7188 22.8984 10.1602 18 10.1602L15.1875 10.1602L15.1875 19.6875L19.582 19.6875C21.2695 19.6875 22.6523 19.2363 23.7305 18.334C24.8086 17.4316 25.3477 16.2656 25.3477 14.8359M26.9297 34.875C26.9297 33.4219 26.4023 32.2266 25.3477 31.2891C24.293 30.3516 22.8984 29.8828 21.1641 29.8828L15.1875 29.8828L15.1875 40.1836L20.25 40.1836C22.3125 40.1836 23.9414 39.709 25.1367 38.7598C26.332 37.8105 26.9297 36.5156 26.9297 34.875" sodipodi:nodetypes="ccccccccccccccccccccccccccccc"/><path id="shape2" transform="matrix(0 1.59950538577593 -1.59967227751654 0 101.030032190989 12.3784830490061)" fill="#ffffff" fill-rule="evenodd" stroke-opacity="0" stroke="#000000" stroke-width="0" stroke-linecap="square" stroke-linejoin="bevel" d="M30.9727 28.8985C30.9727 43.8282 23.7188 51.293 9.21089 51.293C8.03906 51.293 6.63281 51.1524 4.99218 50.8711C3.35156 50.5899 1.6875 50.168 0 49.6055L0 35.5782C1.19531 36.3985 2.52539 37.0606 3.99023 37.5645C5.45507 38.0684 6.66797 38.3203 7.6289 38.3203C10.3477 38.3203 12.3809 37.4825 13.7285 35.8067C15.0762 34.1309 15.75 31.5352 15.75 28.0196L15.75 0L30.9727 0L30.9727 28.8985" sodipodi:nodetypes="cccccccccccc"/><path id="shape3" transform="matrix(1.59967227751654 0 0 1.59950538577593 92.8985609161688 20.5914520302559)" fill="none" stroke="#ffffff" stroke-width="10.32" stroke-linecap="square" stroke-linejoin="miter" stroke-miterlimit="2" d="M0 6.23612L0 0" sodipodi:nodetypes="cc"/>
</svg>
